<?xml version="1.0" standalone="no"?>
<!DOCTYPE svg PUBLIC "-//W3C//DTD SVG 20010904//EN"
 "http://www.w3.org/TR/2001/REC-SVG-20010904/DTD/svg10.dtd">
<svg version="1.0" xmlns="http://www.w3.org/2000/svg"
 width="1024.000000pt" height="1024.000000pt" viewBox="0 0 1024.000000 1024.000000"
 preserveAspectRatio="xMidYMid meet">

<g transform="translate(0.000000,1024.000000) scale(0.100000,-0.100000)"
fill="#000000" stroke="none">
<path d="M6420 9164 c-245 -49 -419 -160 -627 -399 l-61 -70 -1319 -5 c-1197
-5 -1322 -7 -1365 -22 -109 -39 -185 -84 -261 -157 -66 -63 -118 -141 -156
-233 -33 -82 -35 -99 -38 -463 -2 -203 -6 -380 -8 -392 -4 -18 -12 -23 -35
-23 -48 0 -141 -28 -215 -65 -166 -83 -297 -254 -337 -438 -6 -29 -14 -133
-17 -232 l-6 -180 -485 -6 c-304 -3 -498 -9 -520 -16 -170 -53 -297 -137 -389
-257 -40 -53 -93 -146 -103 -181 -4 -11 -25 -72 -48 -135 -23 -63 -50 -140
-60 -170 -10 -30 -37 -107 -60 -170 -23 -63 -48 -135 -56 -160 -8 -25 -19 -54
-24 -65 -5 -11 -18 -49 -30 -85 -12 -36 -25 -74 -30 -85 -5 -11 -18 -49 -30
-85 -12 -36 -25 -74 -30 -85 -21 -49 -64 -215 -80 -310 -6 -38 -15 -89 -20
-113 -13 -56 -13 -2845 -1 -2886 5 -17 15 -51 22 -76 60 -216 244 -411 466
-494 131 -49 -135 -46 4623 -46 4756 0 4483 -3 4626 46 133 45 284 166 367
293 54 83 75 128 101 216 21 69 21 86 24 1470 2 1000 0 1420 -8 1470 -31 193
-66 343 -101 430 -4 11 -17 49 -29 85 -12 36 -25 74 -30 85 -5 11 -18 49 -30
85 -12 36 -25 74 -30 85 -9 22 -50 136 -80 225 -10 30 -37 107 -60 170 -23 63
-50 140 -60 170 -59 180 -114 281 -197 367 -94 97 -193 160 -303 192 -25 7
-58 17 -74 22 -16 5 -113 9 -217 9 -186 0 -219 3 -219 22 0 5 -14 38 -31 73
-50 104 -166 201 -279 234 -19 6 -79 13 -132 17 l-98 7 0 381 c0 225 -4 397
-10 421 -33 128 -69 196 -142 265 -40 38 -132 90 -188 106 -14 4 -79 10 -145
13 l-120 6 -5 405 -5 405 -37 78 c-60 127 -169 218 -303 252 -76 20 -787 19
-885 -1z m805 -400 c19 -14 20 -27 20 -377 l0 -362 -295 -6 c-162 -3 -311 -10
-330 -16 -214 -64 -291 -122 -560 -423 -47 -52 -100 -112 -119 -132 l-34 -38
-1453 0 c-1315 0 -1452 1 -1458 16 -9 24 -6 623 3 673 12 59 56 119 116 156
l48 30 1341 5 1341 5 50 25 c49 23 108 79 282 262 109 115 185 159 323 187 25
5 194 9 375 10 280 0 333 -2 350 -15z m611 -1168 c11 -16 14 -86 14 -388 l0
-368 -22 -5 c-13 -2 -221 -6 -463 -8 l-440 -3 -77 -26 c-181 -60 -248 -114
-524 -420 -125 -139 -234 -259 -242 -265 -12 -10 -100 -13 -361 -13 -341 -1
-347 -1 -391 -24 -146 -74 -144 -283 3 -363 29 -16 69 -18 432 -18 434 0 450
2 531 56 22 15 72 63 110 105 268 301 439 486 462 501 26 18 48 29 105 52 20
8 231 11 721 11 659 0 694 -1 710 -18 15 -17 16 -85 14 -813 l-3 -794 -3295 0
-3295 0 -3 340 c-3 380 1 405 65 476 72 80 -16 73 1048 79 896 5 952 6 983 23
31 18 68 60 91 104 17 33 16 135 -2 169 -17 33 -60 75 -97 95 -20 11 -165 15
-770 19 l-745 5 0 365 c0 322 2 369 17 395 26 47 79 96 126 116 42 18 108 19
1746 19 1196 0 1713 3 1737 11 104 33 138 63 374 329 152 171 190 207 240 232
85 44 113 46 663 45 506 -2 524 -3 538 -21z m-6054 -1556 c-188 -89 -318 -258
-361 -468 -7 -32 -11 -194 -11 -412 l0 -360 -460 0 c-367 0 -460 3 -460 13 0
16 363 1044 385 1090 28 59 74 105 137 136 l61 31 386 0 386 0 -63 -30z m7446
-1 c63 -31 109 -77 137 -136 22 -46 385 -1074 385 -1090 0 -10 -93 -13 -460
-13 l-460 0 0 635 0 635 168 0 c168 0 169 0 230 -31z m610 -2959 c3 -1351 3
-1338 -40 -1427 -25 -52 -98 -126 -146 -149 -97 -46 128 -44 -4532 -44 -4660
0 -4435 -2 -4532 44 -77 37 -150 132 -177 232 -12 46 -17 2625 -4 2637 3 4
2126 6 4717 5 l4711 -3 3 -1295z"/>
<path d="M4530 6076 c-145 -74 -144 -286 2 -362 41 -21 136 -22 180 -1 69 32
109 100 110 185 1 64 -15 102 -59 144 -63 60 -155 74 -233 34z"/>
<path d="M3785 3988 c-37 -14 -103 -58 -131 -89 -12 -13 -34 -46 -50 -74 -24
-44 -28 -60 -28 -140 0 -49 5 -106 11 -125 6 -19 16 -62 23 -95 6 -33 16 -80
22 -105 5 -25 14 -64 19 -87 10 -48 24 -109 40 -180 29 -130 63 -206 134 -295
52 -65 147 -140 220 -173 146 -66 124 -65 1075 -65 964 0 935 -2 1085 71 150
73 278 222 322 374 11 37 16 59 43 180 6 25 15 65 20 90 18 80 28 129 40 190
7 33 17 76 23 95 6 19 11 73 11 120 0 74 -3 92 -29 144 -31 62 -91 122 -153
152 -35 18 -94 19 -1352 21 -917 1 -1324 -2 -1345 -9z m2455 -417 c0 -15 -4
-41 -9 -57 -5 -16 -14 -56 -21 -89 -7 -33 -16 -73 -20 -90 -4 -16 -13 -57 -20
-90 -34 -176 -78 -236 -195 -272 -58 -18 -1652 -18 -1710 0 -117 36 -161 96
-195 272 -7 33 -16 74 -20 90 -4 17 -13 57 -20 90 -7 33 -16 73 -21 89 -5 16
-9 42 -9 57 l0 29 1120 0 1120 0 0 -29z"/>
</g>
</svg>
